<svg xmlns="http://www.w3.org/2000/svg" width="1200" height="630" viewBox="0 0 1200 630">
  <defs>
    <linearGradient id="bg" x1="0%" y1="0%" x2="100%" y2="100%">
      <stop offset="0%" style="stop-color:#0a0a0f"/>
      <stop offset="100%" style="stop-color:#12131a"/>
    </linearGradient>
  </defs>
  <rect width="1200" height="630" fill="url(#bg)"/>
  <!-- Grid lines -->
  <g stroke="#1e1f2e" stroke-width="1" opacity="0.5">
    <line x1="0" y1="100" x2="1200" y2="100"/>
    <line x1="0" y1="200" x2="1200" y2="200"/>
    <line x1="0" y1="300" x2="1200" y2="300"/>
    <line x1="0" y1="400" x2="1200" y2="400"/>
    <line x1="0" y1="500" x2="1200" y2="500"/>
    <line x1="200" y1="0" x2="200" y2="630"/>
    <line x1="400" y1="0" x2="400" y2="630"/>
    <line x1="600" y1="0" x2="600" y2="630"/>
    <line x1="800" y1="0" x2="800" y2="630"/>
    <line x1="1000" y1="0" x2="1000" y2="630"/>
  </g>
  <!-- Logo -->
  <g transform="translate(600, 200) scale(5)">
    <path d="M3 8 C3 4.7, 4.7 2.5, 8 2.5 C11.3 2.5, 13.5 5, 13.5 8" stroke="#00ff41" stroke-width="1.8" stroke-linecap="round" fill="none"/>
    <path d="M13.5 8 C13.5 11.3, 11.3 13.5, 8 13.5 C4.7 13.5, 3 11, 3 8" stroke="#00ff41" stroke-width="1.8" stroke-linecap="round" fill="none" opacity="0.6"/>
    <circle cx="8" cy="8" r="2.2" fill="#00ff41"/>
    <circle cx="3" cy="8" r="1.1" fill="#00ff41" opacity="0.8"/>
    <circle cx="13.5" cy="8" r="1.1" fill="#00ff41" opacity="0.8"/>
  </g>
  <!-- Title -->
  <text x="600" y="350" text-anchor="middle" fill="#e0e0e8" font-family="monospace" font-size="52" font-weight="700">asm <tspan fill="#00ff41">catalog</tspan></text>
  <!-- Subtitle -->
  <text x="600" y="400" text-anchor="middle" fill="#8888a0" font-family="sans-serif" font-size="24">Browse &amp; install 1700+ agent skills for AI coding agents</text>
  <!-- Stats -->
  <g transform="translate(600, 470)" text-anchor="middle">
    <text x="-200" fill="#00ff41" font-family="monospace" font-size="36" font-weight="700">1700+</text>
    <text x="-200" y="30" fill="#8888a0" font-family="sans-serif" font-size="16">skills</text>
    <text x="0" fill="#00ff41" font-family="monospace" font-size="36" font-weight="700">17</text>
    <text x="0" y="30" fill="#8888a0" font-family="sans-serif" font-size="16">repos</text>
    <text x="200" fill="#00ff41" font-family="monospace" font-size="36" font-weight="700">16</text>
    <text x="200" y="30" fill="#8888a0" font-family="sans-serif" font-size="16">categories</text>
  </g>
  <!-- Bottom bar -->
  <rect x="0" y="600" width="1200" height="30" fill="#00ff41" opacity="0.15"/>
  <text x="600" y="622" text-anchor="middle" fill="#00ff41" font-family="monospace" font-size="14">npm i -g agent-skill-manager</text>
</svg>
